<?xml version="1.0" encoding="utf-8"?>
<!-- Generator: Adobe Illustrator 25.0.1, SVG Export Plug-In . SVG Version: 6.00 Build 0)  -->
<svg version="1.1"
	 id="svg2" inkscape:version="1.0 (4035a4f, 2020-05-01)" sodipodi:docname="inkscape_template_reexported.svg" xmlns:cc="http://creativecommons.org/ns#" xmlns:dc="http://purl.org/dc/elements/1.1/" xmlns:inkscape="http://www.inkscape.org/namespaces/inkscape" xmlns:rdf="http://www.w3.org/1999/02/22-rdf-syntax-ns#" xmlns:sodipodi="http://sodipodi.sourceforge.net/DTD/sodipodi-0.dtd" xmlns:svg="http://www.w3.org/2000/svg"
	 xmlns="http://www.w3.org/2000/svg" xmlns:xlink="http://www.w3.org/1999/xlink" x="0px" y="0px" viewBox="0 0 155.7 182.5"
	 style="enable-background:new 0 0 155.7 182.5;" xml:space="preserve">
<style type="text/css">
	.st0{clip-path:url(#SVGID_2_);}
	.st1{fill:url(#path30_1_);}
	.st2{fill:#7DE0BF;}
	.st3{clip-path:url(#SVGID_4_);}
	.st4{fill:#FFFFFF;}
	.st5{font-family:'Aller';}
	.st6{font-size:5px;}
	.st7{font-size:21.7984px;}
	
		.st8{clip-path:url(#SVGID_6_);fill:none;stroke:#FFFFFF;stroke-width:0.75;stroke-linecap:round;stroke-linejoin:round;stroke-miterlimit:10;}
	.st9{fill:none;stroke:#12110B;stroke-width:0.75;stroke-linecap:round;stroke-linejoin:round;stroke-miterlimit:10;}
	.st10{opacity:0.502;fill:#FFFFFF;}
	.st11{fill:none;stroke:#FFFFFF;stroke-width:0.75;stroke-linecap:round;stroke-linejoin:round;stroke-miterlimit:10;}
</style>
<sodipodi:namedview  bordercolor="#666666" borderopacity="1" gridtolerance="10" guidetolerance="10" id="namedview4" inkscape:current-layer="g10" inkscape:cx="50.566365" inkscape:cy="75.545513" inkscape:document-rotation="0" inkscape:pageopacity="0" inkscape:pageshadow="2" inkscape:window-height="858" inkscape:window-maximized="0" inkscape:window-width="1291" inkscape:window-x="222" inkscape:window-y="26" inkscape:zoom="2.5863014" objecttolerance="10" pagecolor="#ffffff" showgrid="false">
	</sodipodi:namedview>
<g>
	<defs>
		<polygon id="SVGID_1_" points="3,134.1 3,48 77.9,4.9 152.7,48 152.7,134.1 77.8,177.2 		"/>
	</defs>
	<clipPath id="SVGID_2_">
		<use xlink:href="#SVGID_1_"  style="overflow:visible;"/>
	</clipPath>
	<g id="g14" transform="matrix(1.25,0,0,-1.25,0,182.5)" class="st0">
		<g id="g20">
			<g id="g22">
				
					<radialGradient id="path30_1_" cx="-173.0292" cy="-260.2407" r="1" gradientTransform="matrix(80.709 0 0 -80.706 14030.085 -20966.3828)" gradientUnits="userSpaceOnUse">
					<stop  offset="0" style="stop-color:#5ECFAB"/>
					<stop  offset="1" style="stop-color:#17B07D"/>
				</radialGradient>
				<path id="path30" inkscape:connector-curvature="0" class="st1" d="M2.4,38.7v68.9l59.9,34.5l59.9-34.5V38.7L62.3,4.2L2.4,38.7z
					"/>
			</g>
		</g>
	</g>
</g>
<g id="g32" transform="translate(0,109.0332)" inkscape:export-filename="/Users/Luke/Downloads/title.png" inkscape:export-xdpi="300" inkscape:export-ydpi="300">
	<path id="path34" inkscape:connector-curvature="0" class="st2" d="M0-62.8v89.7l77.8,44.8l77.8-44.8v-89.7l-77.8-44.8L0-62.8z
		 M6.1,23.4v-82.7l71.8-41.4l71.8,41.4v82.7L77.9,64.7C77.9,64.7,6.1,23.4,6.1,23.4z"/>
</g>
<g id="g238" transform="matrix(1.25,0,0,-1.25,0,182.5)">
	<g>
		<defs>
			<rect id="SVGID_3_" x="-15.6" y="-18.2" width="155.7" height="182.5"/>
		</defs>
		<clipPath id="SVGID_4_">
			<use xlink:href="#SVGID_3_"  style="overflow:visible;"/>
		</clipPath>
		<g id="g240" class="st3">
			<text transform="matrix(0.6934 0.399 0.399 -0.6934 61.7653 8.9448)" class="st4 st5 st6">w</text>
			<text transform="matrix(0.6934 0.399 0.399 -0.6934 64.1645 10.3252)" class="st4 st5 st6">w</text>
			<text transform="matrix(0.6934 0.399 0.399 -0.6934 66.564 11.7057)" class="st4 st5 st6">w</text>
			<text transform="matrix(0.6934 0.399 0.399 -0.6934 68.859 13.0261)" class="st4 st5 st6">.</text>
			<text transform="matrix(0.6934 0.399 0.399 -0.6934 69.3618 13.3154)" class="st4 st5 st6">b</text>
			<text transform="matrix(0.6934 0.399 0.399 -0.6934 71.1992 14.3726)" class="st4 st5 st6">i</text>
			<text transform="matrix(0.6934 0.399 0.399 -0.6934 71.9377 14.7975)" class="st4 st5 st6">o</text>
			<text transform="matrix(0.6934 0.399 0.399 -0.6934 73.72 15.8229)" class="st4 st5 st6">c</text>
			<text transform="matrix(0.6934 0.399 0.399 -0.6934 75.1245 16.631)" class="st4 st5 st6">o</text>
			<text transform="matrix(0.6934 0.399 0.399 -0.6934 76.9064 17.6562)" class="st4 st5 st6">n</text>
			<text transform="matrix(0.6934 0.399 0.399 -0.6934 78.6816 18.6776)" class="st4 st5 st6">d</text>
			<text transform="matrix(0.6934 0.399 0.399 -0.6934 80.5018 19.7249)" class="st4 st5 st6">u</text>
			<text transform="matrix(0.6934 0.399 0.399 -0.6934 82.2875 20.7523)" class="st4 st5 st6">c</text>
			<text transform="matrix(0.6934 0.399 0.399 -0.6934 83.7434 21.5899)" class="st4 st5 st6">t</text>
			<text transform="matrix(0.6934 0.399 0.399 -0.6934 84.7108 22.1465)" class="st4 st5 st6">o</text>
			<text transform="matrix(0.6934 0.399 0.399 -0.6934 86.4927 23.1717)" class="st4 st5 st6">r</text>
			<text transform="matrix(0.6934 0.399 0.399 -0.6934 87.2559 23.6108)" class="st4 st5 st6">.</text>
			<text transform="matrix(0.6934 0.399 0.399 -0.6934 87.7584 23.8999)" class="st4 st5 st6">o</text>
			<text transform="matrix(0.6934 0.399 0.399 -0.6934 89.5403 24.9252)" class="st4 st5 st6">r</text>
			<text transform="matrix(0.6934 0.399 0.399 -0.6934 90.5114 25.4839)" class="st4 st5 st6">g</text>
			<text transform="matrix(0.6934 0.399 0.399 -0.6934 61.7653 8.9448)" class="st4 st5 st6">w</text>
			<text transform="matrix(0.6934 0.399 0.399 -0.6934 64.1645 10.3252)" class="st4 st5 st6">w</text>
			<text transform="matrix(0.6934 0.399 0.399 -0.6934 66.564 11.7057)" class="st4 st5 st6">w</text>
			<text transform="matrix(0.6934 0.399 0.399 -0.6934 68.859 13.0261)" class="st4 st5 st6">.</text>
			<text transform="matrix(0.6934 0.399 0.399 -0.6934 69.3618 13.3154)" class="st4 st5 st6">b</text>
			<text transform="matrix(0.6934 0.399 0.399 -0.6934 71.1992 14.3726)" class="st4 st5 st6">i</text>
			<text transform="matrix(0.6934 0.399 0.399 -0.6934 71.9377 14.7975)" class="st4 st5 st6">o</text>
			<text transform="matrix(0.6934 0.399 0.399 -0.6934 73.72 15.8229)" class="st4 st5 st6">c</text>
			<text transform="matrix(0.6934 0.399 0.399 -0.6934 75.1245 16.631)" class="st4 st5 st6">o</text>
			<text transform="matrix(0.6934 0.399 0.399 -0.6934 76.9064 17.6562)" class="st4 st5 st6">n</text>
			<text transform="matrix(0.6934 0.399 0.399 -0.6934 78.6816 18.6776)" class="st4 st5 st6">d</text>
			<text transform="matrix(0.6934 0.399 0.399 -0.6934 80.5018 19.7249)" class="st4 st5 st6">u</text>
			<text transform="matrix(0.6934 0.399 0.399 -0.6934 82.2875 20.7523)" class="st4 st5 st6">c</text>
			<text transform="matrix(0.6934 0.399 0.399 -0.6934 83.7434 21.5899)" class="st4 st5 st6">t</text>
			<text transform="matrix(0.6934 0.399 0.399 -0.6934 84.7108 22.1465)" class="st4 st5 st6">o</text>
			<text transform="matrix(0.6934 0.399 0.399 -0.6934 86.4927 23.1717)" class="st4 st5 st6">r</text>
			<text transform="matrix(0.6934 0.399 0.399 -0.6934 87.2559 23.6108)" class="st4 st5 st6">.</text>
			<text transform="matrix(0.6934 0.399 0.399 -0.6934 87.7584 23.8999)" class="st4 st5 st6">o</text>
			<text transform="matrix(0.6934 0.399 0.399 -0.6934 89.5403 24.9252)" class="st4 st5 st6">r</text>
			<text transform="matrix(0.6934 0.399 0.399 -0.6934 90.5114 25.4839)" class="st4 st5 st6">g</text>
		</g>
	</g>
</g>
<text transform="matrix(1 0 0 1 44.783 64.6515)" class="st4 st5 st7">waddR</text>
<g>
	<g>
		<g>
			<g>
				<defs>
					<rect id="SVGID_5_" x="37.7" y="77.8" width="85.9" height="43.6"/>
				</defs>
				<clipPath id="SVGID_6_">
					<use xlink:href="#SVGID_5_"  style="overflow:visible;"/>
				</clipPath>
				<polyline class="st8" points="18.3,119.8 19.6,119.8 20.9,119.8 22.2,119.8 23.5,119.8 24.8,119.8 26.1,119.8 27.4,119.8 
					28.7,119.8 30,119.8 31.3,119.8 32.6,119.8 33.9,119.8 35.2,119.8 36.5,119.8 37.8,119.8 39.1,119.8 40.4,119.8 41.7,119.8 
					43,119.8 44.3,119.7 45.6,119.6 46.9,119.3 48.2,118.7 49.5,117.7 50.8,116 52.1,113.3 53.4,109.4 54.7,104.3 56,98.3 
					57.3,91.9 58.6,86 59.9,81.6 61.2,79.5 62.5,80.1 63.8,83.4 65.1,88.6 66.4,94.8 67.7,101.1 69,106.8 70.3,111.3 71.6,114.7 
					72.9,116.9 74.2,118.3 75.5,119 76.8,119.4 78.1,119.6 79.4,119.6 80.7,119.5 82,119.1 83.3,118.4 84.6,117.2 85.9,115.2 
					87.2,112.1 88.5,107.8 89.8,102.3 91.1,96 92.4,89.7 93.7,84.2 95,80.6 96.3,79.4 97.5,81 98.8,85 100.1,90.7 101.4,97 
					102.7,103.2 104,108.5 105.3,112.6 106.6,115.5 107.9,117.4 109.2,118.6 110.5,119.2 111.8,119.5 113.1,119.7 114.4,119.8 
					115.7,119.8 117,119.8 118.3,119.8 119.6,119.8 120.9,119.8 122.2,119.8 123.5,119.8 124.8,119.8 126.1,119.8 127.4,119.8 
					128.7,119.8 130,119.8 131.3,119.8 132.6,119.8 133.9,119.8 135.2,119.8 136.5,119.8 137.8,119.8 139.1,119.8 140.4,119.8 
					141.7,119.8 143,119.8 144.3,119.8 145.6,119.8 				"/>
			</g>
			<g>
				<defs>
					<rect id="SVGID_7_" x="20.9" y="67.8" width="111.4" height="66"/>
				</defs>
				<clipPath id="SVGID_8_">
					<use xlink:href="#SVGID_7_"  style="overflow:visible;"/>
				</clipPath>
			</g>
			<g>
				<defs>
					<rect id="SVGID_9_" x="20.9" y="67.8" width="111.4" height="66"/>
				</defs>
				<clipPath id="SVGID_10_">
					<use xlink:href="#SVGID_9_"  style="overflow:visible;"/>
				</clipPath>
			</g>
			<g>
				<polyline class="st9" points="40.9,119.7 41.7,119.7 42.5,119.7 43.3,119.6 44.1,119.6 45,119.6 45.8,119.5 46.6,119.4 
					47.4,119.3 48.2,119.2 49,119.1 49.8,119 50.6,118.8 51.4,118.6 52.3,118.4 53.1,118.2 53.9,117.9 54.7,117.5 55.5,117.2 
					56.3,116.7 57.1,116.3 57.9,115.8 58.8,115.2 59.6,114.6 60.4,113.9 61.2,113.2 62,112.4 62.8,111.6 63.6,110.8 64.4,109.9 
					65.3,109 66.1,108 66.9,107.1 67.7,106.1 68.5,105.1 69.3,104.2 70.1,103.2 70.9,102.3 71.7,101.5 72.6,100.7 73.4,100 
					74.2,99.3 75,98.8 75.8,98.3 76.6,98 77.4,97.8 78.2,97.6 79.1,97.6 79.9,97.7 80.7,97.9 81.5,98.3 82.3,98.7 83.1,99.2 
					83.9,99.9 84.7,100.6 85.6,101.3 86.4,102.2 87.2,103.1 88,104 88.8,104.9 89.6,105.9 90.4,106.9 91.2,107.8 92.1,108.8 
					92.9,109.7 93.7,110.6 94.5,111.5 95.3,112.3 96.1,113.1 96.9,113.8 97.7,114.5 98.5,115.1 99.4,115.7 100.2,116.2 101,116.7 
					101.8,117.1 102.6,117.5 103.4,117.8 104.2,118.1 105,118.4 105.9,118.6 106.7,118.8 107.5,119 108.3,119.1 109.1,119.2 
					109.9,119.3 110.7,119.4 111.5,119.5 112.4,119.5 113.2,119.6 114,119.6 114.8,119.7 115.6,119.7 116.4,119.7 117.2,119.7 
					118,119.8 118.8,119.8 119.7,119.8 120.5,119.8 				"/>
				<g>
					<polygon class="st10" points="46.2,119.8 17.4,119.8 18.7,119.8 20,119.8 21.3,119.8 22.6,119.8 24,119.8 25.3,119.8 
						26.6,119.8 27.9,119.8 29.2,119.8 30.6,119.8 31.9,119.8 33.2,119.8 34.5,119.8 35.8,119.8 37.1,119.8 38.5,119.8 39.8,119.8 
						41.1,119.8 42.4,119.8 43.7,119.7 45.1,119.6 46.4,119.3 47.7,118.7 49,117.7 50.3,116 51.7,113.3 53,109.4 54.3,104.3 
						55.6,98.3 56.9,91.9 58.3,86 59.6,81.6 60.9,79.5 62.2,80.1 63.5,83.4 64.9,88.6 66.2,94.8 67.5,101.1 68.8,106.8 70.1,111.3 
						71.4,114.7 72.8,116.9 74.1,118.3 75.4,119 76.7,119.4 78,119.6 79.4,119.6 80.7,119.5 82,119.1 83.3,118.4 84.6,117.2 
						86,115.2 87.3,112.1 88.6,107.8 89.9,102.3 91.2,96 92.6,89.7 93.9,84.2 95.2,80.6 96.5,79.4 97.8,81 99.1,85 100.5,90.7 
						101.8,97 103.1,103.2 104.4,108.5 105.7,112.6 107.1,115.5 108.4,117.4 109.7,118.6 111,119.2 112.3,119.5 113.7,119.7 
						115,119.8 116.3,119.8 117.6,119.8 118.9,119.8 120.2,119.8 121.6,119.8 122.9,119.8 124.2,119.8 125.5,119.8 126.8,119.8 
						128.2,119.8 129.5,119.8 130.8,119.8 132.1,119.8 133.4,119.8 134.8,119.8 136.1,119.8 137.4,119.8 138.7,119.8 140,119.8 
						141.4,119.8 142.7,119.8 144,119.8 145.3,119.8 146.6,119.8 121.5,119.8 					"/>
				</g>
				<g>
					<polygon class="st10" points="58.6,119.8 40.9,119.7 41.7,119.7 42.5,119.7 43.3,119.6 44.1,119.6 45,119.6 45.8,119.5 
						46.6,119.4 47.4,119.3 48.2,119.2 49,119.1 49.8,119 50.6,118.8 51.4,118.6 52.3,118.4 53.1,118.2 53.9,117.9 54.7,117.5 
						55.5,117.2 56.3,116.7 57.1,116.3 57.9,115.8 58.8,115.2 59.6,114.6 60.4,113.9 61.2,113.2 62,112.4 62.8,111.6 63.6,110.8 
						64.4,109.9 65.3,109 66.1,108 66.9,107.1 67.7,106.1 68.5,105.1 69.3,104.2 70.1,103.2 70.9,102.3 71.7,101.5 72.6,100.7 
						73.4,100 74.2,99.3 75,98.8 75.8,98.3 76.6,98 77.4,97.8 78.2,97.6 79.1,97.6 79.9,97.7 80.7,97.9 81.5,98.3 82.3,98.7 
						83.1,99.2 83.9,99.9 84.7,100.6 85.6,101.3 86.4,102.2 87.2,103.1 88,104 88.8,104.9 89.6,105.9 90.4,106.9 91.2,107.8 
						92.1,108.8 92.9,109.7 93.7,110.6 94.5,111.5 95.3,112.3 96.1,113.1 96.9,113.8 97.7,114.5 98.5,115.1 99.4,115.7 100.2,116.2 
						101,116.7 101.8,117.1 102.6,117.5 103.4,117.8 104.2,118.1 105,118.4 105.9,118.6 106.7,118.8 107.5,119 108.3,119.1 
						109.1,119.2 109.9,119.3 110.7,119.4 111.5,119.5 112.4,119.5 113.2,119.6 114,119.6 114.8,119.7 115.6,119.7 116.4,119.7 
						117.2,119.7 118,119.8 118.8,119.8 119.7,119.8 120.5,119.8 105,119.8 					"/>
					<polygon class="st11" points="58.6,119.8 40.9,119.7 41.7,119.7 42.5,119.7 43.3,119.6 44.1,119.6 45,119.6 45.8,119.5 
						46.6,119.4 47.4,119.3 48.2,119.2 49,119.1 49.8,119 50.6,118.8 51.4,118.6 52.3,118.4 53.1,118.2 53.9,117.9 54.7,117.5 
						55.5,117.2 56.3,116.7 57.1,116.3 57.9,115.8 58.8,115.2 59.6,114.6 60.4,113.9 61.2,113.2 62,112.4 62.8,111.6 63.6,110.8 
						64.4,109.9 65.3,109 66.1,108 66.9,107.1 67.7,106.1 68.5,105.1 69.3,104.2 70.1,103.2 70.9,102.3 71.7,101.5 72.6,100.7 
						73.4,100 74.2,99.3 75,98.8 75.8,98.3 76.6,98 77.4,97.8 78.2,97.6 79.1,97.6 79.9,97.7 80.7,97.9 81.5,98.3 82.3,98.7 
						83.1,99.2 83.9,99.9 84.7,100.6 85.6,101.3 86.4,102.2 87.2,103.1 88,104 88.8,104.9 89.6,105.9 90.4,106.9 91.2,107.8 
						92.1,108.8 92.9,109.7 93.7,110.6 94.5,111.5 95.3,112.3 96.1,113.1 96.9,113.8 97.7,114.5 98.5,115.1 99.4,115.7 100.2,116.2 
						101,116.7 101.8,117.1 102.6,117.5 103.4,117.8 104.2,118.1 105,118.4 105.9,118.6 106.7,118.8 107.5,119 108.3,119.1 
						109.1,119.2 109.9,119.3 110.7,119.4 111.5,119.5 112.4,119.5 113.2,119.6 114,119.6 114.8,119.7 115.6,119.7 116.4,119.7 
						117.2,119.7 118,119.8 118.8,119.8 119.7,119.8 120.5,119.8 105,119.8 					"/>
				</g>
			</g>
		</g>
	</g>
</g>
</svg>
